<svg preserveAspectRatio="none" width="100%" height="100%" overflow="visible" style="display: block;" viewBox="0 0 70.1749 70.2484" fill="none" xmlns="http://www.w3.org/2000/svg">
<g id="Gram">
<path id="Vector" d="M13.7812 13.7888C9.92893 17.6405 7.19504 22.468 5.87191 27.755C4.54878 33.042 4.6862 38.5897 6.26945 43.8045L25.007 25.0281C26.0766 23.9887 27.5117 23.4123 29.0024 23.4234C30.493 23.4345 31.9194 24.0322 32.9735 25.0873C34.0276 26.1425 34.6246 27.5704 34.6357 29.0626C34.6468 30.5548 34.0709 31.9915 33.0326 33.0622L11.8771 54.2452C12.4764 54.9636 13.0966 55.6699 13.7812 56.3483C25.5157 68.0968 44.5546 68.0968 56.2873 56.3483C60.1373 52.4998 62.8701 47.6763 64.1935 42.3934C65.5169 37.1105 65.3812 31.5669 63.8008 26.3552L45.0406 45.1316C43.965 46.1301 42.5447 46.6725 41.0781 46.6449C39.6114 46.6172 38.2126 46.0217 37.1753 44.9833C36.138 43.945 35.5431 42.5446 35.5155 41.0764C35.4879 39.6082 36.0297 38.1865 37.0272 37.1098L58.1983 15.8919C57.6008 15.1752 56.9615 14.4672 56.2821 13.7836C50.6435 8.14465 42.9993 4.97721 35.029 4.97721C27.0588 4.97721 19.4146 8.14465 13.776 13.7836" fill="var(--fill-0, white)"/>
<path id="Vector_2" d="M5.35485e-05 35.6851C-0.00726887 39.9339 0.736435 44.1505 2.19678 48.1399L4.49629 45.7996C3.45389 42.5297 2.92498 39.1175 2.92845 35.6851C2.9267 17.6359 17.3213 2.98727 35.0885 2.98727C45.0287 2.98727 53.9184 7.57718 59.8257 14.7864L61.9022 12.6815C55.4688 4.93519 45.8509 0 35.0972 0C15.7151 0 0.00876169 15.9775 0.00876169 35.6851" fill="var(--fill-0, white)"/>
<path id="Vector_3" d="M65.6908 24.4976C66.7288 27.7509 67.2542 31.1463 67.2482 34.5615C67.2482 52.6299 52.8589 67.2681 35.0917 67.2681C25.1619 67.2681 16.2775 62.6991 10.3876 55.5143L8.31628 57.6069C14.7479 65.3306 24.3554 70.2484 35.0917 70.2484C54.4685 70.2484 70.1749 54.2604 70.1749 34.558C70.1751 30.3338 69.4388 26.142 67.9991 22.1712L65.6908 24.4976Z" fill="var(--fill-0, white)"/>
</g>
</svg>
